<?xml version="1.0" encoding="UTF-8"?>
<svg width="752pt" height="752pt" version="1.1" viewBox="0 0 752 752" xmlns="http://www.w3.org/2000/svg">
 <g>
  <path d="m347.59 378.37c0 9.1523-7.4219 16.574-16.574 16.574-9.1562 0-16.574-7.4219-16.574-16.574 0-9.1562 7.418-16.578 16.574-16.578 9.1523 0 16.574 7.4219 16.574 16.578"/>
  <path d="m437.57 378.37c0 9.1523-7.4219 16.574-16.574 16.574-9.1562 0-16.574-7.4219-16.574-16.574 0-9.1562 7.418-16.578 16.574-16.578 9.1523 0 16.574 7.4219 16.574 16.578"/>
  <path d="m470.72 243.4c-7.5352 0.007812-14.758 3.0039-20.082 8.3359l-29.504 29.551h-90.168l-29.551-29.551c-5.3281-5.3438-12.559-8.3516-20.102-8.3594-7.5469-0.003906-14.785 2.9883-20.117 8.3242-5.3359 5.332-8.332 12.57-8.3242 20.113v113.66c0 43.992 23.469 84.641 61.566 106.64 38.094 21.992 85.031 21.992 123.13 0 38.098-21.996 61.566-62.645 61.566-106.64v-113.66c0-7.5352-2.9922-14.762-8.3242-20.09-5.3281-5.332-12.555-8.3242-20.09-8.3242zm0 142.07c0 25.121-9.9805 49.211-27.742 66.977-17.762 17.762-41.855 27.738-66.977 27.738-25.117 0-49.211-9.9766-66.973-27.738-17.762-17.766-27.742-41.855-27.742-66.977v-113.66l37.887 37.887h56.828 56.828l37.887-37.887z"/>
 </g>
</svg>
